# xmcd
#
# Track frame offsets:
#	150
#	15853
#	35049
#	52922
#	67898
#	87769
#	104987
#	124610
#	146180
#	163591
#	175692
#	189123
#
# Disc length: 2762 seconds
#
# Revision: 10
# Processed by: cddbd v1.5.2PL0 Copyright (c) Steve Scherf et al.
# Submitted via: audiograbber 1.83.01
#
DISCID=960ac80c
DTITLE=Various Artist - Nur die besten Schlager CD5
DYEAR=2007
DGENRE=Schlager
TTITLE0=Roberto Blanco - Der Puppenspieler von Mexico
TTITLE1=Marianne Rosenberg - Marleen
TTITLE2=Paola - Am Anfang einer neuen Liebe
TTITLE3=Juliane Werding - Wenn Du denkst Du denkst
TTITLE4=Roland Kaiser - Und wer küsst mich
TTITLE5=Gitte Haenning - Du tust mir so gut
TTITLE6=Vicky Leandros - Ich bin für Dich da
TTITLE7=Jonny Hill - Ruf Teddybär eins-vier
TTITLE8=Renate and Werner Leismann - Lasst uns unsre alten Lieder
TTITLE9=Carin Posch - Du bist meine grosse Liebe
TTITLE10=Danny Davis - Das kannst Du mir nicht verbieten
TTITLE11=Mario Jordan - Welch ein Tag
EXTD=YEAR: 2007
EXTT0=
EXTT1=
EXTT2=
EXTT3=
EXTT4=
EXTT5=
EXTT6=
EXTT7=
EXTT8=
EXTT9=
EXTT10=
EXTT11=
PLAYORDER=
